<?xml version="1.0" encoding="UTF-8"?>
<svg width="88px" height="88px" viewBox="0 0 88 88" version="1.1" xmlns="http://www.w3.org/2000/svg" xmlns:xlink="http://www.w3.org/1999/xlink">
    <!-- Generator: Sketch 54.1 (76490) - https://sketchapp.com -->
    <title>分组</title>
    <desc>Created with Sketch.</desc>
    <g id="Page-1" stroke="none" stroke-width="1" fill="none" fill-rule="evenodd">
        <g id="画板" transform="translate(-1718.000000, -526.000000)">
            <g id="分组" transform="translate(1718.000000, 526.000000)">
                <g id="分组-3">
                    <path d="M43.091,54.0893 C41.113,46.5553 37.139,39.6743 31.588,34.1723 C30.901,33.4913 31.56,32.3553 32.493,32.6133 C36.228,33.6453 40.063,34.1663 43.956,34.1663 C47.862,34.1663 51.716,33.6413 55.477,32.6013 C56.41,32.3433 57.068,33.4803 56.381,34.1613 C50.843,39.6503 46.874,46.5363 44.893,54.0893 C44.648,55.0233 43.336,55.0233 43.091,54.0893" id="Fill-184" fill="#FFCD00"></path>
                    <path d="M38.7881,87.1334 L38.7881,64.5574 C38.5581,51.0004 31.2301,39.1724 20.3601,32.6284 L0.7871,21.3284 L0.7871,58.6674 C0.7871,62.7184 2.9501,66.4614 6.4591,68.4854 L38.7881,87.1334 Z" id="Fill-186" fill="#88CC00"></path>
                    <path d="M49.1859,87.1334 L49.1859,64.5574 C49.4159,51.0004 56.7439,39.1724 67.6139,32.6284 L87.1869,21.3284 L87.1869,58.6674 C87.1869,62.7184 85.0239,66.4614 81.5149,68.4854 L49.1859,87.1334 Z" id="Fill-188" fill="#0080FF"></path>
                    <path d="M7.1171,12.983 L25.5561,23.629 C37.4111,30.208 51.3191,29.776 62.4201,23.634 L80.8531,12.992 L47.8931,0.923 C45.3781,0.002 42.6191,0.002 40.1031,0.921 L7.1171,12.983 Z" id="Fill-190" fill="#FF6900"></path>
                </g>
            </g>
        </g>
    </g>
</svg>